<?xml version="1.0" encoding="utf-8"?>
<svg viewBox="22.53 208.046 113.455 76.401" xmlns="http://www.w3.org/2000/svg">
  <rect x="-5.666" y="189.421" width="623.93" height="100.594" style="fill: transparent"/>
  <rect x="41.944" y="180.011" width="32.387" height="48.774" style="fill: none; stroke-width: 2px; stroke: rgb(251, 145, 37);" transform="matrix(1, 0, 0, 1, -15.046145, 51.136009)"/>
  <rect x="78.319" y="161.851" width="32.387" height="66.935" style="fill: none; stroke-width: 2px; stroke: rgb(251, 145, 37);" transform="matrix(1, 0, 0, 1, -15.046145, 51.136009)"/>
  <rect x="114.659" y="199.048" width="32.387" height="29.731" style="fill: none; stroke-width: 2px; stroke: rgb(251, 145, 37);" transform="matrix(1, 0, 0, 1, -15.046145, 51.136009)"/>
  <line style="stroke: rgb(251, 145, 37);" x1="116.162" y1="217.378" x2="145.48" y2="217.378" transform="matrix(1, 0, 0, 1, -15.046145, 51.136009)"/>
  <line style="stroke: rgb(251, 145, 37);" x1="116.162" y1="211.252" x2="145.48" y2="211.252" transform="matrix(1, 0, 0, 1, -15.046145, 51.136009)"/>
  <line style="stroke: rgb(251, 145, 37);" x1="116.162" y1="223.504" x2="145.48" y2="223.504" transform="matrix(1, 0, 0, 1, -15.046145, 51.136009)"/>
  <line style="stroke: rgb(251, 145, 37);" x1="79.895" y1="211.252" x2="109.213" y2="211.252" transform="matrix(1, 0, 0, 1, -15.046145, 51.136009)"/>
  <line style="stroke: rgb(251, 145, 37);" x1="79.895" y1="217.378" x2="109.213" y2="217.378" transform="matrix(1, 0, 0, 1, -15.046145, 51.136009)"/>
  <line style="stroke: rgb(251, 145, 37);" x1="79.895" y1="223.504" x2="109.213" y2="223.504" transform="matrix(1, 0, 0, 1, -15.046145, 51.136009)"/>
  <line style="stroke: rgb(251, 145, 37);" x1="79.895" y1="205.127" x2="109.213" y2="205.127" transform="matrix(1, 0, 0, 1, -15.046145, 51.136009)"/>
  <line style="stroke: rgb(251, 145, 37);" x1="79.895" y1="199.001" x2="109.213" y2="199.001" transform="matrix(1, 0, 0, 1, -15.046145, 51.136009)"/>
  <line style="stroke: rgb(251, 145, 37);" x1="79.895" y1="192.875" x2="109.213" y2="192.875" transform="matrix(1, 0, 0, 1, -15.046145, 51.136009)"/>
  <line style="stroke: rgb(251, 145, 37);" x1="79.895" y1="186.75" x2="109.213" y2="186.75" transform="matrix(1, 0, 0, 1, -15.046145, 51.136009)"/>
  <line style="stroke: rgb(251, 145, 37);" x1="79.895" y1="180.624" x2="109.213" y2="180.624" transform="matrix(1, 0, 0, 1, -15.046145, 51.136009)"/>
  <line style="stroke: rgb(251, 145, 37);" x1="79.895" y1="174.498" x2="109.213" y2="174.498" transform="matrix(1, 0, 0, 1, -15.046145, 51.136009)"/>
  <line style="stroke: rgb(251, 145, 37);" x1="79.895" y1="168.373" x2="109.213" y2="168.373" transform="matrix(1, 0, 0, 1, -15.046145, 51.136009)"/>
  <line style="stroke: rgb(251, 145, 37);" x1="43.46" y1="211.252" x2="72.777" y2="211.252" transform="matrix(1, 0, 0, 1, -15.046145, 51.136009)"/>
  <line style="stroke: rgb(251, 145, 37);" x1="43.46" y1="217.378" x2="72.777" y2="217.378" transform="matrix(1, 0, 0, 1, -15.046145, 51.136009)"/>
  <line style="stroke: rgb(251, 145, 37);" x1="43.46" y1="223.504" x2="72.777" y2="223.504" transform="matrix(1, 0, 0, 1, -15.046145, 51.136009)"/>
  <line style="stroke: rgb(251, 145, 37);" x1="43.46" y1="205.127" x2="72.777" y2="205.127" transform="matrix(1, 0, 0, 1, -15.046145, 51.136009)"/>
  <line style="stroke: rgb(251, 145, 37);" x1="43.46" y1="199.001" x2="72.777" y2="199.001" transform="matrix(1, 0, 0, 1, -15.046145, 51.136009)"/>
  <line style="stroke: rgb(251, 145, 37);" x1="43.46" y1="192.875" x2="72.777" y2="192.875" transform="matrix(1, 0, 0, 1, -15.046145, 51.136009)"/>
  <line style="stroke: rgb(251, 145, 37);" x1="116.162" y1="205.127" x2="145.48" y2="205.127" transform="matrix(1, 0, 0, 1, -15.046145, 51.136009)"/>
  <line style="stroke: rgb(251, 145, 37);" x1="43.46" y1="186.75" x2="72.777" y2="186.75" transform="matrix(1, 0, 0, 1, -15.046145, 51.136009)"/>
</svg>